<svg xmlns="http://www.w3.org/2000/svg" viewBox="0 0 1440 320">
  <path fill="#29b6f6" fill-opacity="0.5" d="M0,192L48,197.3C96,203,192,213,288,229.3C384,245,480,267,576,250.7C672,235,768,181,864,181.3C960,181,1056,235,1152,234.7C1248,235,1344,181,1392,154.7L1440,128L1440,320L1392,320C1344,320,1248,320,1152,320C1056,320,960,320,864,320C768,320,672,320,576,320C480,320,384,320,288,320C192,320,96,320,48,320L0,320Z"></path>
  <path fill="#29b6f6" fill-opacity="0.3" d="M0,96L48,128C96,160,192,224,288,213.3C384,203,480,117,576,106.7C672,96,768,160,864,186.7C960,213,1056,203,1152,186.7C1248,171,1344,149,1392,138.7L1440,128L1440,320L1392,320C1344,320,1248,320,1152,320C1056,320,960,320,864,320C768,320,672,320,576,320C480,320,384,320,288,320C192,320,96,320,48,320L0,320Z"></path>
  <path fill="#29b6f6" fill-opacity="0.2" d="M0,224L48,213.3C96,203,192,181,288,154.7C384,128,480,96,576,106.7C672,117,768,171,864,197.3C960,224,1056,224,1152,202.7C1248,181,1344,139,1392,117.3L1440,96L1440,320L1392,320C1344,320,1248,320,1152,320C1056,320,960,320,864,320C768,320,672,320,576,320C480,320,384,320,288,320C192,320,96,320,48,320L0,320Z"></path>
</svg>
